<svg xmlns="http://www.w3.org/2000/svg" viewBox="0 0 100 100">
  <rect x="0" y="0" width="100" height="100" rx="20" fill="#8DC63F"/>
  <path d="M50,36
           C50,28 42,22 32,22
           C17,22 6,35 6,54
           C6,75 26,90 50,90
           C74,90 94,75 94,54
           C94,35 83,22 68,22
           C58,22 50,28 50,36 Z"
        fill="none" stroke="#E4392E" stroke-width="4.5" stroke-linecap="round" stroke-linejoin="round"/>
  <path d="M50,36 C48,28 44,22 40,17" fill="none" stroke="#E4392E" stroke-width="4.5" stroke-linecap="round"/>
  <path d="M40,17 C46,10 56,12 60,20 C56,26 46,26 40,17 Z" fill="#6FAF3A"/>
  <text x="34" y="65" font-family="Arial, sans-serif" font-size="30" font-weight="800" fill="white">IA</text>
  <path d="M68,38 l2,5 l5,2 l-5,2 l-2,5 l-2,-5 l-5,-2 l5,-2 Z" fill="white"/>
</svg>
